<?xml version="1.0" encoding="utf-8"?>
<!-- Generator: Adobe Illustrator 16.0.0, SVG Export Plug-In . SVG Version: 6.00 Build 0)  -->
<!DOCTYPE svg PUBLIC "-//W3C//DTD SVG 1.1//EN" "http://www.w3.org/Graphics/SVG/1.1/DTD/svg11.dtd">
<svg version="1.1" id="Ebene_1" xmlns="http://www.w3.org/2000/svg" xmlns:xlink="http://www.w3.org/1999/xlink" x="0px" y="0px"
	 width="54.032px" height="54.032px" viewBox="81.244 220.551 54.032 54.032" enable-background="new 81.244 220.551 54.032 54.032"
	 xml:space="preserve">
<g>
	<path fill="#FFFFFF" d="M111.509,256.778h-8.6v-1.167c0-1.302,0.262-2.457,0.786-3.466c0.524-1.008,1.627-2.291,3.311-3.847
		l1.524-1.382c0.905-0.826,1.568-1.604,1.989-2.334c0.42-0.73,0.631-1.461,0.631-2.191c0-1.111-0.381-1.981-1.144-2.608
		s-1.826-0.941-3.192-0.941c-1.287,0-2.676,0.266-4.169,0.798c-1.493,0.532-3.049,1.322-4.669,2.37v-7.48
		c1.921-0.667,3.676-1.159,5.265-1.477c1.588-0.318,3.121-0.477,4.597-0.477c3.875,0,6.829,0.79,8.862,2.37
		c2.032,1.581,3.049,3.887,3.049,6.92c0,1.557-0.31,2.95-0.929,4.181c-0.619,1.231-1.676,2.553-3.168,3.966l-1.525,1.358
		c-1.08,0.985-1.787,1.775-2.12,2.37c-0.333,0.596-0.5,1.251-0.5,1.966V256.778z M102.909,260.304h8.6v8.48h-8.6V260.304z"/>
</g>
<circle fill="#F44336" cx="108.26" cy="247.567" r="27.016"/>
<g>
	
		<rect x="104.229" y="231.36" transform="matrix(-0.7071 0.7071 -0.7071 -0.7071 359.9082 346.0474)" fill="#FFFFFF" width="8.104" height="32.414"/>
	
		<rect x="104.209" y="231.381" transform="matrix(-0.7071 -0.7071 0.7071 -0.7071 9.7407 499.2105)" fill="#FFFFFF" width="8.103" height="32.414"/>
</g>
</svg>
